# xmcd
#
# Track frame offsets:
# 150
# 10644
# 22799
# 31102
# 47642
# 61842
# 69656
# 77339
# 89884
# 101186
# 110487
# 120185
# 128445
# 139219
# 148771
# 160345
# 170775
# 179883
# 191856
# 201890
# 210879
# 220288
# 230169
# 241448
# 253140
# 264435
# 273478
# 282168
# 294947
# 305058
# 313572
# 326164
# 338076
#
# Disc length: 4619 seconds
#
#
# Revision: 1
# Processed by: cddbd v1.5.2PL0 Copyright (c) Steve Scherf et al.
# Submitted via: FreeRIP 2.951 
#
DISCID=f0120921
DTITLE=Johnny Cash - 8 classic albums - CD 4
DYEAR=2011
DGENRE=Country
TTITLE0=Loading coals
TTITLE1=Slow rider
TTITLE2=Lumberjack
TTITLE3=Dorraine of Ponchartrain
TTITLE4=Going to Memphis
TTITLE5=When papa played the dobro
TTITLE6=Boss Jack
TTITLE7=Old Doc Brown
TTITLE8=Seasons of my heart
TTITLE9=I feel better all over
TTITLE10=I couldn't keep from crying
TTITLE11=Time changes everything
TTITLE12=My shoes keep walking back to you
TTITLE13=I'd just be fool enough (To fall)
TTITLE14=Transfusion blues
TTITLE15=Why do you punish me (For loving you)
TTITLE16=I will miss you when you go
TTITLE17=I'm so lonesome I could cry
TTITLE18=Just one more
TTITLE19=Honky tonk girl
TTITLE20=Down the street to 301
TTITLE21=The story of a broken heart
TTITLE22=Mean eyed cat
TTITLE23=Port of lonely hearts
TTITLE24=Oh lonesome me
TTITLE25=Life goes on
TTITLE26=Second honeymoon
TTITLE27=Locomotive man
TTITLE28=Girl in Saskatoon
TTITLE29=The rebel - Johnny Yuma
TTITLE30=Remember the Alamo
TTITLE31=The Ballad of Boot Hill
TTITLE32=Lorena
EXTD=
EXTT0=
EXTT1=
EXTT2=
EXTT3=
EXTT4=
EXTT5=
EXTT6=
EXTT7=
EXTT8=
EXTT9=
EXTT10=
EXTT11=
EXTT12=
EXTT13=
EXTT14=
EXTT15=
EXTT16=
EXTT17=
EXTT18=
EXTT19=
EXTT20=
EXTT21=
EXTT22=
EXTT23=
EXTT24=
EXTT25=
EXTT26=
EXTT27=
EXTT28=
EXTT29=
EXTT30=
EXTT31=
EXTT32=
PLAYORDER=
